<svg width="34" height="34" viewBox="0 0 34 34" fill="none" xmlns="http://www.w3.org/2000/svg">
<g clip-path="url(#clip0_140_47)">
<path d="M2.83334 28.3334C2.83334 29.8917 4.10834 31.1667 5.66668 31.1667H28.3333C29.8917 31.1667 31.1667 29.8917 31.1667 28.3334V9.91675H24.6564C23.9877 6.29575 20.8123 3.54175 17 3.54175C13.1878 3.54175 10.0123 6.29575 9.34364 9.91675H2.83334V28.3334ZM17 4.95841C20.0281 4.95841 22.564 7.082 23.2107 9.91675H10.7893C11.4361 7.082 13.9719 4.95841 17 4.95841ZM9.20834 11.3334V15.5834H10.625V11.3334H23.375V15.5834H24.7917V11.3334H29.75V28.3334C29.75 29.1147 29.1146 29.7501 28.3333 29.7501H5.66668C4.88539 29.7501 4.25001 29.1147 4.25001 28.3334V11.3334H9.20834Z" fill="white"/>
</g>
<defs>
<clipPath id="clip0_140_47">
<rect width="34" height="34" fill="white"/>
</clipPath>
</defs>
</svg>
