<svg width="43" height="43" viewBox="0 0 43 43" fill="none" xmlns="http://www.w3.org/2000/svg">
<g clip-path="url(#clip0_68_262)">
<path fill-rule="evenodd" clip-rule="evenodd" d="M13.205 0.126287C15.4495 0.0229612 16.1651 0 21.8825 0C27.5998 0 28.3155 0.0248747 30.558 0.126287C32.8006 0.227699 34.3313 0.585512 35.6707 1.10405C37.0733 1.63408 38.3457 2.4626 39.3981 3.53412C40.4696 4.5846 41.2962 5.85512 41.8243 7.25959C42.3448 8.599 42.7007 10.1297 42.804 12.3685C42.9074 14.6168 42.9303 15.3324 42.9303 21.0478C42.9303 26.7652 42.9054 27.4808 42.804 29.7253C42.7026 31.964 42.3448 33.4948 41.8243 34.8342C41.2962 36.2388 40.4683 37.5114 39.3981 38.5634C38.3457 39.635 37.0733 40.4616 35.6707 40.9897C34.3313 41.5101 32.8006 41.866 30.5618 41.9694C28.3155 42.0727 27.5998 42.0957 21.8825 42.0957C16.1651 42.0957 15.4495 42.0708 13.205 41.9694C10.9663 41.868 9.43556 41.5101 8.09616 40.9897C6.69154 40.4615 5.41891 39.6336 4.36686 38.5634C3.29607 37.5123 2.46742 36.2403 1.93871 34.8361C1.42017 33.4967 1.06427 31.9659 0.960943 29.7272C0.857617 27.4789 0.834656 26.7633 0.834656 21.0478C0.834656 15.3305 0.85953 14.6148 0.960943 12.3723C1.06235 10.1297 1.42017 8.599 1.93871 7.25959C2.4682 5.85528 3.29748 4.58329 4.36878 3.53221C5.41933 2.46164 6.69068 1.63301 8.09424 1.10405C9.43365 0.585512 10.9644 0.229613 13.2031 0.126287H13.205ZM30.3877 3.9149C28.1681 3.81348 27.5023 3.79244 21.8825 3.79244C16.2627 3.79244 15.5968 3.81348 13.3772 3.9149C11.3241 4.00865 10.2105 4.35116 9.46809 4.64009C8.4865 5.02278 7.78427 5.47626 7.04759 6.21294C6.34927 6.89231 5.81186 7.71935 5.47475 8.63344C5.18582 9.37585 4.84331 10.4895 4.74955 12.5426C4.64814 14.7622 4.62709 15.4281 4.62709 21.0478C4.62709 26.6676 4.64814 27.3335 4.74955 29.5531C4.84331 31.6062 5.18582 32.7198 5.47475 33.4622C5.81151 34.3749 6.34919 35.2035 7.04759 35.8827C7.72686 36.5811 8.55538 37.1188 9.46809 37.4556C10.2105 37.7445 11.3241 38.087 13.3772 38.1808C15.5968 38.2822 16.2608 38.3032 21.8825 38.3032C27.5042 38.3032 28.1681 38.2822 30.3877 38.1808C32.4408 38.087 33.5545 37.7445 34.2969 37.4556C35.2785 37.0729 35.9807 36.6194 36.7174 35.8827C37.4158 35.2035 37.9535 34.3749 38.2902 33.4622C38.5792 32.7198 38.9217 31.6062 39.0154 29.5531C39.1168 27.3335 39.1379 26.6676 39.1379 21.0478C39.1379 15.4281 39.1168 14.7622 39.0154 12.5426C38.9217 10.4895 38.5792 9.37585 38.2902 8.63344C37.9075 7.65184 37.4541 6.94961 36.7174 6.21294C36.038 5.51467 35.2109 4.97726 34.2969 4.64009C33.5545 4.35116 32.4408 4.00865 30.3877 3.9149ZM19.1941 27.5363C20.6955 28.1613 22.3673 28.2456 23.924 27.7749C25.4807 27.3043 26.8256 26.3077 27.7292 24.9555C28.6328 23.6034 29.0389 21.9794 28.8781 20.3611C28.7174 18.7428 27.9998 17.2305 26.8479 16.0825C26.1136 15.3486 25.2257 14.7867 24.2481 14.4372C23.2706 14.0877 22.2277 13.9592 21.1946 14.0611C20.1615 14.163 19.1638 14.4927 18.2734 15.0265C17.3829 15.5602 16.622 16.2848 16.0452 17.148C15.4684 18.0111 15.0901 18.9914 14.9377 20.0183C14.7852 21.0452 14.8624 22.0931 15.1635 23.0866C15.4647 24.0801 15.9824 24.9945 16.6793 25.7639C17.3763 26.5333 18.2351 27.1387 19.1941 27.5363ZM14.2326 13.3979C15.2372 12.3933 16.4298 11.5964 17.7424 11.0527C19.055 10.509 20.4618 10.2292 21.8825 10.2292C23.3032 10.2292 24.71 10.509 26.0226 11.0527C27.3352 11.5964 28.5278 12.3933 29.5324 13.3979C30.537 14.4025 31.3339 15.5951 31.8776 16.9077C32.4213 18.2203 32.7011 19.6271 32.7011 21.0478C32.7011 22.4686 32.4213 23.8754 31.8776 25.1879C31.3339 26.5005 30.537 27.6932 29.5324 28.6978C27.5035 30.7266 24.7518 31.8665 21.8825 31.8665C19.0132 31.8665 16.2614 30.7266 14.2326 28.6978C12.2037 26.6689 11.0639 23.9171 11.0639 21.0478C11.0639 18.1786 12.2037 15.4268 14.2326 13.3979ZM35.1005 11.8404C35.3495 11.6055 35.5488 11.3231 35.6866 11.0099C35.8245 10.6966 35.8981 10.3589 35.9031 10.0167C35.908 9.67452 35.8443 9.3348 35.7157 9.01767C35.587 8.70055 35.396 8.41246 35.154 8.17046C34.912 7.92846 34.6239 7.73748 34.3068 7.60882C33.9897 7.48017 33.65 7.41644 33.3078 7.42143C32.9656 7.42642 32.6278 7.50002 32.3146 7.63787C32.0014 7.77572 31.719 7.97501 31.4841 8.22396C31.0274 8.70812 30.7774 9.35121 30.7871 10.0167C30.7968 10.6822 31.0654 11.3178 31.5361 11.7884C32.0067 12.259 32.6423 12.5277 33.3078 12.5374C33.9733 12.5471 34.6164 12.2971 35.1005 11.8404Z" fill="black"/>
</g>
<circle cx="10.1252" cy="9.57356" r="2.39339" fill="black"/>
<circle cx="10.1252" cy="9.57356" r="2.39339" fill="black"/>
<circle cx="10.1252" cy="32.7095" r="2.39339" fill="black"/>
<circle cx="10.1252" cy="32.7095" r="2.39339" fill="black"/>
<defs>
<clipPath id="clip0_68_262">
<rect width="42.0957" height="42.0957" fill="white" transform="translate(0.834656)"/>
</clipPath>
</defs>
</svg>
