<svg width="132" height="49" viewBox="0 0 132 49" fill="none" xmlns="http://www.w3.org/2000/svg">
<mask id="mask0_140_486" style="mask-type:luminance" maskUnits="userSpaceOnUse" x="0" y="0" width="49" height="49">
<path d="M48.9746 0H0V48.0327H48.9746V0Z" fill="white"/>
</mask>
<g mask="url(#mask0_140_486)">
<path d="M24.1727 0H24.8006L24.4867 21.2684L24.1727 0ZM8.31669 5.98159L8.79806 5.57975L22.2682 22.072L8.31669 5.98159ZM0.0286865 20.7242L0.133333 20.1089L21.0919 24.1106L0.0286865 20.7242ZM3.18482 37.3337L2.87088 36.7895L21.5021 26.4253L3.18482 37.3295V37.3337ZM16.3075 48.0327L15.7131 47.8193L23.3062 27.9406L16.3075 48.0327ZM33.2602 47.8193L32.67 48.0327L25.6713 27.9406L33.2602 47.8193ZM46.1066 36.7895L45.7927 37.3337L27.4754 26.4295L46.1066 36.7937V36.7895ZM48.84 20.1089L48.9446 20.7242L27.8856 24.1106L48.84 20.1089ZM40.1753 5.57557L40.6566 5.97741L26.7094 22.0679L40.1753 5.57557ZM24.2816 3.75053H24.7211L24.4992 13.445L24.2816 3.75053ZM20.6357 4.10214L21.0668 4.0268L22.5402 13.6208L20.6357 4.10214ZM17.107 5.08163L17.5172 4.93094L20.6357 14.1189L17.1028 5.08163H17.107ZM13.8044 6.6597L14.1853 6.44204L18.8525 14.9477L13.8044 6.6597ZM10.824 8.78193L11.1589 8.50148L17.2409 16.0695L10.824 8.78193ZM8.25809 11.3897L8.53854 11.0549L15.847 17.455L8.25809 11.3897ZM6.19027 14.4035L6.39956 14.0268L14.7127 19.0624L6.19027 14.4035ZM4.67499 17.7271L4.82568 17.3169L13.8881 20.8372L4.67499 17.7271ZM3.7541 21.2642L3.82945 20.833L13.369 22.7334L3.7541 21.2642ZM3.46946 24.9142V24.4789L13.1932 24.6966L3.46946 24.9142ZM3.82526 28.5517L3.74992 28.1206L13.369 26.6514L3.82526 28.5517ZM4.80894 32.0721L4.65825 31.6618L13.8713 28.5517L4.80894 32.0721ZM6.39119 35.3621L6.17353 34.9854L14.7043 30.3265L6.39119 35.3663V35.3621ZM8.52179 38.3341L8.24134 37.9992L15.8303 31.9339L8.52179 38.3341ZM11.138 40.8917L10.8031 40.6112L17.2242 33.3236L11.138 40.8917ZM14.1601 42.9595L13.7834 42.746L18.8358 34.458L14.1601 42.9595ZM17.4963 44.4706L17.0861 44.3199L20.6189 35.2826L17.5005 44.4706H17.4963ZM21.0459 45.3831L20.6147 45.3077L22.5151 35.7975L21.0459 45.3831ZM24.7043 45.6677H24.2648L24.4825 35.9733L24.7001 45.6677H24.7043ZM28.3502 45.3161L27.9191 45.3915L26.4456 35.8058L28.3502 45.3161ZM31.8789 44.3366L31.4687 44.4873L28.3502 35.2994L31.8831 44.3366H31.8789ZM35.1857 42.7586L34.8048 42.9762L30.125 34.4705L35.1815 42.7586H35.1857ZM38.166 40.6363L37.8312 40.9168L31.7491 33.3487L38.166 40.6363ZM40.732 38.0285L40.4515 38.3634L33.143 31.9632L40.732 38.0285ZM42.804 35.0147L42.5863 35.3914L34.2732 30.3558L42.804 35.0147ZM44.3193 31.6911L44.1686 32.1014L35.1062 28.581L44.3193 31.6911ZM45.2276 28.1541L45.1522 28.5852L35.6127 26.6849L45.2276 28.1541ZM45.5122 24.504V24.9393L35.7885 24.7217L45.5122 24.504ZM45.1564 20.8665L45.2318 21.2977L35.6169 22.7669L45.1564 20.8665ZM44.1728 17.3462L44.3234 17.7564L35.1104 20.8665L44.1728 17.3462ZM42.5905 14.0561L42.8082 14.4328L34.2774 19.0917L42.5905 14.0519V14.0561ZM40.4599 11.0842L40.7404 11.419L33.1514 17.4843L40.4599 11.0842ZM37.8437 8.5266L38.1786 8.80705L31.7575 16.0946L37.8396 8.5266H37.8437ZM34.8215 6.46715L35.2025 6.67645L30.1459 14.9644L34.8215 6.46715ZM31.4854 4.95606L31.8956 5.10675L28.367 14.144L31.4854 4.95606ZM27.94 4.03935L28.3711 4.1147L26.4666 13.625L27.94 4.03935ZM22.9756 9.77398L23.3858 9.73631L23.8253 17.1285L22.9714 9.77398H22.9756ZM20.3971 10.2637L20.7947 10.1591L22.5151 17.3629L20.3929 10.2637H20.3971ZM17.9442 11.193L18.3209 11.0172L21.2719 17.8108L17.9484 11.1888L17.9442 11.193ZM15.688 12.5325L16.027 12.2939L20.1166 18.4764L15.688 12.5283V12.5325ZM13.6997 14.2403L13.9927 13.9473L19.0953 19.3261L13.6997 14.2361V14.2403ZM12.0379 16.2662L12.2765 15.9272L18.2372 20.3433L12.0379 16.2662ZM10.757 18.5517L10.9328 18.1792L17.5716 21.4944L10.7529 18.5517H10.757ZM9.89476 21.0214L9.9994 20.6237L17.1154 22.7376L9.89476 21.0214ZM9.47617 23.6041L9.50966 23.1938L16.8893 24.0436L9.47617 23.6041ZM9.50966 26.2202L9.47198 25.81L16.8851 25.3705L9.50547 26.2202H9.50966ZM9.9994 28.7903L9.89476 28.3927L17.1195 26.6765L9.9994 28.7903ZM10.9328 31.2391L10.757 30.8623L17.5716 27.9197L10.9328 31.2391ZM12.2765 33.4869L12.0379 33.1562L18.2372 29.0792L12.2765 33.4911V33.4869ZM13.9927 35.4668L13.6997 35.1738L19.0953 30.0838L13.9927 35.4668ZM16.0229 37.1244L15.6838 36.8858L20.1124 30.9419L16.0229 37.1202V37.1244ZM18.3125 38.4011L17.9358 38.2253L21.2552 31.6032L18.3083 38.4011H18.3125ZM20.7905 39.2634L20.3929 39.1587L22.5151 32.0637L20.7947 39.2634H20.7905ZM23.3816 39.6819L22.9714 39.6485L23.8253 32.2897L23.3858 39.6819H23.3816ZM26.0061 39.6485L25.5959 39.6861L25.1564 32.2939L26.0103 39.6526L26.0061 39.6485ZM28.5846 39.1587L28.187 39.2634L26.4666 32.0595L28.5888 39.1587H28.5846ZM31.0375 38.2295L30.6608 38.4053L27.7098 31.6116L31.0375 38.2295ZM33.2937 36.89L32.9588 37.1286L28.8693 30.9461L33.2937 36.89ZM35.282 35.1821L34.989 35.4752L29.8864 30.0963L35.282 35.1821ZM36.9438 33.1562L36.7052 33.4952L30.7445 29.0792L36.9438 33.1562ZM38.2247 30.8707L38.0488 31.2433L31.4101 27.9281L38.2288 30.8707H38.2247ZM39.0869 28.4011L38.9823 28.7987L31.8663 26.6849L39.0869 28.4011ZM39.5055 25.8184L39.472 26.2286L32.0924 25.3789L39.5055 25.8184ZM39.472 23.2022L39.5097 23.6124L32.0966 24.0519L39.4762 23.2022H39.472ZM38.9823 20.6321L39.0869 21.0298L31.8621 22.746L38.9823 20.6321ZM38.0488 18.1834L38.2247 18.5559L31.4101 21.4986L38.0488 18.1834ZM36.7094 15.9356L36.9438 16.2704L30.7445 20.3475L36.7094 15.9356ZM34.9932 13.9557L35.2862 14.2487L29.8906 19.3345L34.9932 13.9557ZM32.9588 12.2981L33.2979 12.5366L28.8693 18.4806L32.9588 12.3022V12.2981ZM30.665 11.0214L31.0417 11.1972L27.7181 17.8192L30.6692 11.0214H30.665ZM28.187 10.1591L28.5846 10.2637L26.4624 17.3588L28.1828 10.1591H28.187ZM25.5959 9.7405L26.0061 9.77398L25.1522 17.1327L25.5917 9.7405H25.5959Z" fill="#954B15"/>
</g>
<circle cx="24.4873" cy="24.6805" r="1.5486" stroke="#954B15" stroke-width="0.193575"/>
<circle cx="24.4873" cy="24.6806" r="3.87151" stroke="#954B15" stroke-width="1.35503"/>
<path d="M59.3581 22.5506C58.2123 22.064 57.0742 21.8207 55.944 21.8207C53.6523 21.8207 52.5064 22.6684 52.5064 24.3636C52.5064 25.1014 52.7654 25.7921 53.2834 26.4357C53.8014 27.0635 54.4293 27.6286 55.167 28.1309C55.9048 28.6175 56.6426 29.1198 57.3803 29.6379C58.1181 30.1559 58.746 30.7759 59.264 31.498C59.782 32.22 60.041 33.0049 60.041 33.8525C60.041 35.2809 59.5622 36.364 58.6047 37.1018C57.6472 37.8239 56.3208 38.1849 54.6255 38.1849C52.9459 38.1849 51.5096 37.7532 50.3166 36.8899L50.8817 36.0422C52.0119 36.78 53.252 37.1489 54.6019 37.1489C55.9519 37.1489 56.9879 36.882 57.71 36.3483C58.432 35.7989 58.793 35.0141 58.793 33.9938C58.793 33.2874 58.534 32.6203 58.016 31.9924C57.498 31.3488 56.8702 30.7759 56.1324 30.2736C55.3946 29.7556 54.6569 29.2297 53.9191 28.696C53.1814 28.1623 52.5535 27.5266 52.0355 26.7888C51.5175 26.0511 51.2585 25.2584 51.2585 24.4107C51.2585 23.2962 51.6666 22.4172 52.4828 21.7736C53.3148 21.1144 54.4293 20.7847 55.8263 20.7847C57.239 20.7847 58.5497 21.0673 59.7584 21.6324L59.3581 22.5506ZM65.8538 32.063L63.4286 37.9023H62.2278L69.315 20.9495H69.9742L77.085 37.9023H75.8135L73.3884 32.063H65.8538ZM69.574 22.8332C69.5583 22.8489 69.5269 22.9431 69.4798 23.1157C69.26 23.7907 69.0481 24.3636 68.8441 24.8346L66.254 31.0977H72.9881L70.3981 24.8581C69.8487 23.6651 69.574 22.9902 69.574 22.8332ZM81.6549 23.7515L81.702 25.7528V37.9023H80.5718V20.926H81.0898L92.1797 33.7112C92.9332 34.606 93.514 35.3202 93.9221 35.8539C93.8593 35.1004 93.8279 34.2371 93.8279 33.2639V21.0673H94.9581V38.0436H94.4401L83.1382 25.0229C82.3534 24.1282 81.8511 23.5317 81.6313 23.2335L81.6549 23.7515ZM106.566 37.0782C108.779 37.0782 110.553 36.4818 111.887 35.2888C113.237 34.0801 113.912 32.2671 113.912 29.8498C113.912 27.4324 113.151 25.5095 111.628 24.0811C110.121 22.6527 108.254 21.9385 106.025 21.9385C104.596 21.9385 103.356 21.9777 102.304 22.0562V36.8899C103.325 37.0155 104.745 37.0782 106.566 37.0782ZM106.025 20.9024C108.615 20.9024 110.781 21.7108 112.523 23.3276C114.265 24.9287 115.137 27.1106 115.137 29.8733C115.137 31.2703 114.909 32.5104 114.454 33.5935C114.014 34.6609 113.402 35.5164 112.617 36.16C111 37.4628 108.983 38.1143 106.566 38.1143C104.981 38.1143 103.183 38.0279 101.174 37.8553V21.0673C102.775 20.9574 104.392 20.9024 106.025 20.9024ZM124.739 37.9023H123.608V31.8747L117.275 21.0673H118.64L123.538 29.5908C123.82 30.0931 124.056 30.5326 124.244 30.9093C124.307 30.7053 124.527 30.2814 124.903 29.6379L129.801 21.0673H131.096L124.739 31.9218V37.9023Z" fill="#954B15"/>
<path d="M55.3325 14.584H55.1227L53.6541 11.0174C53.5919 10.8775 53.5298 10.7144 53.4676 10.5279C53.4676 10.5331 53.4624 10.5616 53.4521 10.6134C53.4469 10.6652 53.4391 10.7351 53.4288 10.8232C53.4184 10.906 53.408 10.976 53.3977 11.033L52.8149 14.8481H52.4652L53.2889 9.77418H53.4987L55.0683 13.4961C55.1926 13.8069 55.2548 13.9701 55.2548 13.9856C55.291 13.8769 55.361 13.7163 55.4646 13.5039L57.2129 9.77418H57.4227L58.1919 14.8481H57.8189L57.2673 11.0174C57.231 10.7636 57.2129 10.5952 57.2129 10.5123L56.9875 11.0252L55.3325 14.584ZM59.7756 13.0998L59.053 14.8481H58.6878L60.8013 9.77418H61.0111L63.1402 14.8481H62.7439L62.0135 13.0998H59.7756ZM60.8868 10.3492C60.8091 10.5823 60.7392 10.7765 60.677 10.9319L59.9 12.7968H61.8891L61.1199 10.9397C61.0008 10.6496 60.923 10.4528 60.8868 10.3492ZM65.1812 10.0228C64.9015 10.0228 64.6736 10.0902 64.4975 10.2248C64.3213 10.3595 64.2333 10.5486 64.2333 10.7921C64.2333 11.0718 64.3498 11.323 64.5829 11.5458C64.7487 11.7064 64.9611 11.8773 65.2201 12.0586C65.4843 12.2348 65.6656 12.3617 65.764 12.4394C65.8624 12.5171 65.9816 12.6233 66.1214 12.7579C66.3753 13.0118 66.5022 13.3045 66.5022 13.636C66.5022 14.0659 66.3571 14.3923 66.0671 14.615C65.7821 14.8326 65.3807 14.9414 64.8627 14.9414C64.3498 14.9414 63.9199 14.8067 63.5728 14.5373L63.7593 14.2654C64.1115 14.5037 64.4845 14.6228 64.8782 14.6228C65.2719 14.6228 65.5775 14.5399 65.7951 14.3742C66.0178 14.2084 66.1292 13.9753 66.1292 13.6748C66.1292 13.4158 66.0178 13.1775 65.7951 12.96C65.6397 12.8046 65.4299 12.6362 65.1657 12.4549C64.9067 12.2736 64.7254 12.1441 64.6218 12.0664C64.5182 11.9835 64.3964 11.8747 64.2566 11.74C63.9924 11.4759 63.8603 11.1702 63.8603 10.8232C63.8603 10.4761 63.982 10.2041 64.2255 10.0073C64.4742 9.81044 64.816 9.71201 65.2512 9.71201C65.6863 9.71201 66.0774 9.79749 66.4245 9.96843L66.2924 10.2559C65.9712 10.1005 65.6008 10.0228 65.1812 10.0228ZM68.9525 10.0228C68.6728 10.0228 68.4449 10.0902 68.2688 10.2248C68.0926 10.3595 68.0046 10.5486 68.0046 10.7921C68.0046 11.0718 68.1211 11.323 68.3542 11.5458C68.52 11.7064 68.7324 11.8773 68.9914 12.0586C69.2556 12.2348 69.4369 12.3617 69.5353 12.4394C69.6337 12.5171 69.7529 12.6233 69.8927 12.7579C70.1466 13.0118 70.2735 13.3045 70.2735 13.636C70.2735 14.0659 70.1284 14.3923 69.8384 14.615C69.5534 14.8326 69.152 14.9414 68.634 14.9414C68.1211 14.9414 67.6912 14.8067 67.3441 14.5373L67.5306 14.2654C67.8828 14.5037 68.2558 14.6228 68.6495 14.6228C69.0432 14.6228 69.3488 14.5399 69.5664 14.3742C69.7891 14.2084 69.9005 13.9753 69.9005 13.6748C69.9005 13.4158 69.7891 13.1775 69.5664 12.96C69.411 12.8046 69.2012 12.6362 68.937 12.4549C68.678 12.2736 68.4967 12.1441 68.3931 12.0664C68.2895 11.9835 68.1677 11.8747 68.0279 11.74C67.7637 11.4759 67.6316 11.1702 67.6316 10.8232C67.6316 10.4761 67.7533 10.2041 67.9968 10.0073C68.2455 9.81044 68.5873 9.71201 69.0225 9.71201C69.4576 9.71201 69.8487 9.79749 70.1958 9.96843L70.0637 10.2559C69.7425 10.1005 69.3721 10.0228 68.9525 10.0228ZM71.9546 13.0998L71.232 14.8481H70.8668L72.9803 9.77418H73.1901L75.3191 14.8481H74.9228L74.1924 13.0998H71.9546ZM73.0657 10.3492C72.988 10.5823 72.9181 10.7765 72.8559 10.9319L72.0789 12.7968H74.0681L73.2988 10.9397C73.1797 10.6496 73.102 10.4528 73.0657 10.3492ZM78.357 10.0461C77.782 10.0461 77.2976 10.2663 76.9039 10.7066C76.5154 11.1417 76.3212 11.6779 76.3212 12.315C76.3212 12.9522 76.5413 13.4935 76.9816 13.939C77.4219 14.3793 77.94 14.5995 78.5357 14.5995C79.1366 14.5995 79.6028 14.5296 79.9343 14.3897V12.315H80.2918V14.5529C79.8877 14.8015 79.3153 14.9258 78.5745 14.9258C77.8338 14.9258 77.2096 14.6746 76.7019 14.1721C76.1942 13.6697 75.9404 13.0532 75.9404 12.3228C75.9404 11.5872 76.1683 10.9708 76.6242 10.4735C77.0852 9.9762 77.6784 9.72755 78.4036 9.72755C78.9889 9.72755 79.5614 9.81821 80.1208 9.99951L80.0276 10.2948C79.4888 10.129 78.932 10.0461 78.357 10.0461ZM81.9879 14.8481V9.80526H84.3422V10.1161H82.3453V11.9498H84.148V12.2529H82.3453V14.5218H84.4199V14.8481H81.9879ZM88.6425 9.82857C89.0103 9.79749 89.3884 9.78195 89.7769 9.78195C90.1654 9.78195 90.497 9.87519 90.7715 10.0617C91.0512 10.2482 91.1911 10.5201 91.1911 10.8775C91.1911 11.1469 91.1186 11.3956 90.9735 11.6235C90.8285 11.8514 90.6524 12.025 90.4452 12.1441C90.7819 12.2425 91.0616 12.4186 91.2843 12.6725C91.5071 12.9263 91.6185 13.2138 91.6185 13.535C91.6185 13.9805 91.476 14.3172 91.1911 14.5451C90.9114 14.773 90.5151 14.887 90.0023 14.887C89.4894 14.887 89.0362 14.8689 88.6425 14.8326V9.82857ZM89.3496 12.2995L88.9999 12.3073V14.5373C89.2226 14.5581 89.5827 14.5684 90.08 14.5684C90.4167 14.5684 90.6938 14.4752 90.9114 14.2887C91.1341 14.097 91.2455 13.8587 91.2455 13.5738C91.2455 13.2837 91.1341 13.0325 90.9114 12.8201C90.6938 12.6025 90.4089 12.4497 90.0566 12.3617C89.8753 12.3202 89.6396 12.2995 89.3496 12.2995ZM90.8414 10.8698C90.8414 10.616 90.7352 10.4217 90.5229 10.287C90.3105 10.1471 90.0566 10.0772 89.7614 10.0772C89.4661 10.0772 89.2123 10.085 88.9999 10.1005V12.0042C89.4506 12.0042 89.8106 12.0172 90.08 12.0431C90.282 11.9343 90.4581 11.7763 90.6083 11.5691C90.7637 11.3567 90.8414 11.1236 90.8414 10.8698ZM94.1999 14.8481H93.8503V13.0454L91.9466 9.80526H92.3739L93.8425 12.3073C93.9565 12.5352 94.0212 12.6569 94.0368 12.6725C94.0679 12.6051 94.1326 12.486 94.231 12.315L95.6996 9.80526H96.1037L94.1999 13.061V14.8481Z" fill="#954B15"/>
</svg>
