<svg width="43" height="43" viewBox="0 0 43 43" fill="none" xmlns="http://www.w3.org/2000/svg">
<g clip-path="url(#clip0_68_256)">
<path d="M21.7171 42.0957C33.3415 42.0957 42.765 32.6722 42.765 21.0478C42.765 9.42344 33.3415 0 21.7171 0C10.0927 0 0.669312 9.42344 0.669312 21.0478C0.669312 32.6722 10.0927 42.0957 21.7171 42.0957Z" fill="url(#paint0_linear_68_256)"/>
<path fill-rule="evenodd" clip-rule="evenodd" d="M10.1968 20.8256C16.3326 18.1523 20.4242 16.3899 22.4714 15.5384C28.3166 13.1072 29.5312 12.6849 30.3228 12.6709C30.497 12.6679 30.8863 12.711 31.1384 12.9157C31.3514 13.0884 31.41 13.3218 31.438 13.4857C31.466 13.6495 31.5009 14.0226 31.4732 14.3142C31.1564 17.6424 29.7859 25.7189 29.0886 29.4465C28.7935 31.0238 28.2126 31.5527 27.6502 31.6044C26.4279 31.7169 25.4997 30.7967 24.3159 30.0206C22.4634 28.8063 21.4169 28.0504 19.6187 26.8654C17.5406 25.496 18.8877 24.7433 20.072 23.5133C20.382 23.1914 25.7674 18.2929 25.8716 17.8486C25.8847 17.793 25.8968 17.5858 25.7737 17.4764C25.6506 17.3671 25.469 17.4045 25.3379 17.4342C25.1521 17.4764 22.1928 19.4324 16.4598 23.3023C15.6198 23.8791 14.859 24.1602 14.1773 24.1454C13.4257 24.1292 11.9801 23.7205 10.9055 23.3712C9.58734 22.9427 8.53972 22.7162 8.63095 21.9885C8.67846 21.6095 9.20041 21.2219 10.1968 20.8256Z" fill="white"/>
</g>
<defs>
<linearGradient id="paint0_linear_68_256" x1="21.7171" y1="0" x2="21.7171" y2="41.7835" gradientUnits="userSpaceOnUse">
<stop/>
<stop offset="1"/>
</linearGradient>
<clipPath id="clip0_68_256">
<rect width="42.0957" height="42.0957" fill="white" transform="translate(0.669312)"/>
</clipPath>
</defs>
</svg>
