<svg width="43" height="43" viewBox="0 0 43 43" fill="none" xmlns="http://www.w3.org/2000/svg">
<g clip-path="url(#clip0_68_253)">
<path d="M0 20.2059C0 10.6807 0 5.91818 2.95909 2.95909C5.91818 0 10.6807 0 20.2059 0H21.8897C31.4149 0 36.1774 0 39.1366 2.95909C42.0957 5.91818 42.0957 10.6807 42.0957 20.2059V21.8897C42.0957 31.4149 42.0957 36.1774 39.1366 39.1366C36.1774 42.0957 31.4149 42.0957 21.8897 42.0957H20.2059C10.6807 42.0957 5.91818 42.0957 2.95909 39.1366C0 36.1774 0 31.4149 0 21.8897V20.2059Z" fill="black"/>
<path d="M22.3261 30.3088C12.546 30.3088 6.96772 23.6721 6.73529 12.6287H11.6343C11.7952 20.7343 15.4067 24.1677 18.2675 24.8756V12.6287H22.8806V19.6193C25.7055 19.3185 28.6731 16.1328 29.6744 12.6287H34.2874C33.5186 16.9469 30.3003 20.1326 28.0117 21.4422C30.3003 22.5041 33.9657 25.2826 35.3603 30.3088H30.2824C29.1917 26.9462 26.4743 24.3447 22.8806 23.9907V30.3088H22.3261Z" fill="white"/>
</g>
<defs>
<clipPath id="clip0_68_253">
<rect width="42.0957" height="42.0957" fill="white"/>
</clipPath>
</defs>
</svg>
