<svg width="105" height="105" viewBox="0 0 105 105" fill="none" xmlns="http://www.w3.org/2000/svg">
<rect x="1.99224" y="1.99224" width="100.94" height="100.94" rx="50.4702" fill="white" stroke="#F8C382" stroke-width="3.98449"/>
<path d="M58.5069 43.8376C56.8009 45.5436 54.1595 45.8517 52.1124 44.586L51.2429 44.0577C48.2603 42.2198 47.7761 38.0705 50.2524 35.5942C52.7287 33.1178 56.878 33.6021 58.716 36.5847L59.2443 37.4542C60.521 39.4903 60.2128 42.1427 58.5069 43.8376Z" fill="#FFA9A4" stroke="black" stroke-width="1.2624" stroke-miterlimit="10" stroke-linecap="round" stroke-linejoin="round"/>
<path d="M57.8135 48.229C58.9031 50.3751 58.3858 52.9835 56.5478 54.5464L55.7774 55.2067C53.103 57.474 49.0087 56.6595 47.4239 53.5338C45.828 50.4082 47.578 46.6111 50.9788 45.7857L51.9693 45.5435C54.3026 44.9712 56.7239 46.0828 57.8135 48.229Z" fill="#FFA9A4" stroke="black" stroke-width="1.2624" stroke-miterlimit="10" stroke-linecap="round" stroke-linejoin="round"/>
<path d="M61.7756 50.243C64.1529 49.8688 66.4751 51.1675 67.3886 53.4018L67.7738 54.3373C69.1055 57.584 67.0584 61.216 63.6026 61.7663C60.1357 62.3166 57.065 59.488 57.3402 55.9882L57.4172 54.9756C57.5933 52.5873 59.3983 50.6283 61.7756 50.243Z" fill="#FFA9A4" stroke="black" stroke-width="1.2624" stroke-miterlimit="10" stroke-linecap="round" stroke-linejoin="round"/>
<path d="M64.9123 47.1063C65.2865 44.729 67.2455 42.9241 69.6448 42.737L70.6574 42.6599C74.1573 42.3958 76.9858 45.4664 76.4355 48.9223C75.8852 52.3892 72.2532 54.4253 69.0065 53.0936L68.071 52.7084C65.8478 51.8059 64.5381 49.4836 64.9123 47.1063Z" fill="#FFA9A4" stroke="black" stroke-width="1.2624" stroke-miterlimit="10" stroke-linecap="round" stroke-linejoin="round"/>
<path d="M62.8983 43.1441C60.7521 42.0545 59.6405 39.6332 60.2128 37.2889L60.4549 36.2984C61.2804 32.8866 65.0774 31.1476 68.2031 32.7435C71.3288 34.3393 72.1432 38.4226 69.876 41.097L69.2157 41.8674C67.6528 43.7164 65.0444 44.2337 62.8983 43.1441Z" fill="#FFA9A4" stroke="black" stroke-width="1.2624" stroke-miterlimit="10" stroke-linecap="round" stroke-linejoin="round"/>
<path opacity="0.6" d="M65.7377 33.6681C66.3541 33.6681 66.9484 33.8112 67.5097 34.0973C67.7738 34.2294 68.027 34.3945 68.2471 34.5926" stroke="white" stroke-width="1.76737" stroke-miterlimit="10" stroke-linecap="round" stroke-linejoin="round"/>
<path opacity="0.6" d="M69.5237 38.5768C69.4907 38.7089 69.4466 38.8519 69.3916 38.984" stroke="white" stroke-width="1.76737" stroke-miterlimit="10" stroke-linecap="round" stroke-linejoin="round"/>
<path d="M61.1812 51.3326C63.8435 51.3326 66.0018 49.1744 66.0018 46.512C66.0018 43.8497 63.8435 41.6914 61.1812 41.6914C58.5189 41.6914 56.3606 43.8497 56.3606 46.512C56.3606 49.1744 58.5189 51.3326 61.1812 51.3326Z" fill="#F6F171" stroke="black" stroke-width="1.2624" stroke-miterlimit="10" stroke-linecap="round" stroke-linejoin="round"/>
<path d="M45.6408 46.545C46.2792 47.7337 47.1596 48.7352 48.2492 49.3405C50.0322 50.3311 52.3875 50.0779 54.0714 48.9883C57.109 47.0073 57.3841 42.9571 56.2395 39.8204C54.4566 34.9117 50.2743 31.3348 46.2571 28C47.2807 30.2892 46.8184 32.9637 46.07 35.363C45.6078 36.8268 45.0465 38.2796 44.6613 39.7543C44.122 41.7794 44.5072 44.4429 45.6408 46.545Z" fill="#8ECB18" stroke="black" stroke-width="1.2624" stroke-miterlimit="10" stroke-linecap="round" stroke-linejoin="round"/>
<path d="M50.3403 57.9472C50.6045 56.5824 50.8796 55.2177 51.1217 53.853C52.1673 48.1189 51.8041 42.2747 50.1642 36.7717" stroke="black" stroke-width="1.2624" stroke-miterlimit="10" stroke-linecap="round" stroke-linejoin="round"/>
<path d="M58.3968 56.4063C57.3292 56.0871 56.2396 56.0101 55.2491 56.2962C53.6312 56.7585 52.4095 58.2773 52.0683 59.8952C51.452 62.8228 53.6532 65.3321 56.1515 66.5098C60.0476 68.3367 64.5711 67.9735 68.8524 67.5773C66.9154 66.8399 65.6277 65.0129 64.6701 63.1749C64.0868 62.0523 63.5696 60.8857 62.9312 59.7961C62.0617 58.2993 60.2788 56.9676 58.3968 56.4063Z" fill="#8ECB18" stroke="black" stroke-width="1.2624" stroke-miterlimit="10" stroke-linecap="round" stroke-linejoin="round"/>
<path d="M49.0087 52.4993C49.647 53.4458 50.2854 54.4033 50.9457 55.3388C53.6752 59.2899 57.2961 62.4817 61.4564 64.7269" stroke="black" stroke-width="1.2624" stroke-miterlimit="10" stroke-linecap="round" stroke-linejoin="round"/>
<path opacity="0.15" d="M55.3259 66.0695L52.6405 63.373" stroke="black" stroke-width="1.00993" stroke-miterlimit="10" stroke-linecap="round" stroke-linejoin="round"/>
<path opacity="0.15" d="M60.8069 67.7534L52.2663 59.2128" stroke="black" stroke-width="1.00993" stroke-miterlimit="10" stroke-linecap="round" stroke-linejoin="round"/>
<path opacity="0.15" d="M64.7031 67.8744L53.8513 57.0226" stroke="black" stroke-width="1.00993" stroke-miterlimit="10" stroke-linecap="round" stroke-linejoin="round"/>
<path opacity="0.15" d="M68.2579 67.6323L67.2343 66.6088L67.2233 66.5978L66.3318 65.7063L56.7457 56.1201" stroke="black" stroke-width="1.00993" stroke-miterlimit="10" stroke-linecap="round" stroke-linejoin="round"/>
<path opacity="0.15" d="M50.7035 49.9568L44.6723 43.9255" stroke="black" stroke-width="1.00993" stroke-miterlimit="10" stroke-linecap="round" stroke-linejoin="round"/>
<path opacity="0.15" d="M53.7192 49.1864L44.5843 40.0515" stroke="black" stroke-width="1.00993" stroke-miterlimit="10" stroke-linecap="round" stroke-linejoin="round"/>
<path opacity="0.15" d="M55.7002 47.3814L45.4756 37.1459" stroke="black" stroke-width="1.00993" stroke-miterlimit="10" stroke-linecap="round" stroke-linejoin="round"/>
<path opacity="0.15" d="M56.7459 44.6409L46.3783 34.2733" stroke="black" stroke-width="1.00993" stroke-miterlimit="10" stroke-linecap="round" stroke-linejoin="round"/>
<path opacity="0.15" d="M56.4707 40.5798L46.8515 30.9496" stroke="black" stroke-width="1.00993" stroke-miterlimit="10" stroke-linecap="round" stroke-linejoin="round"/>
<path d="M42.8455 53.3136C40.138 53.3136 37.7827 51.4536 37.1664 48.8231L36.9022 47.7115C35.9887 43.8705 38.9053 40.1835 42.8455 40.1835C46.7966 40.1835 49.7022 43.8705 48.7887 47.7115L48.5245 48.8231C47.8972 51.4536 45.5529 53.3136 42.8455 53.3136Z" fill="#F4D2BC" stroke="black" stroke-width="1.2624" stroke-miterlimit="10" stroke-linecap="round" stroke-linejoin="round"/>
<path opacity="0.6" d="M42.8454 41.7023C44.2651 41.7023 45.5748 42.3406 46.4553 43.4522" stroke="white" stroke-width="1.76737" stroke-miterlimit="10" stroke-linecap="round" stroke-linejoin="round"/>
<path opacity="0.6" d="M47.3138 47.3594L47.1818 47.9207" stroke="white" stroke-width="1.76737" stroke-miterlimit="10" stroke-linecap="round" stroke-linejoin="round"/>
<path d="M38.7953 56.2521C37.9589 58.8275 35.4605 60.4894 32.7641 60.2692L31.6194 60.1812C27.6903 59.862 25.0819 55.9549 26.3036 52.2019C27.5252 48.4489 31.9276 46.82 35.2954 48.8671L36.275 49.4614C38.5972 50.8702 39.6318 53.6767 38.7953 56.2521Z" fill="#F4D2BC" stroke="black" stroke-width="1.2624" stroke-miterlimit="10" stroke-linecap="round" stroke-linejoin="round"/>
<path d="M40.3471 61.0067C42.5373 62.6025 43.3517 65.4861 42.3062 67.9844L41.8659 69.041C40.3471 72.684 35.8237 73.9497 32.6319 71.6274C29.4402 69.3051 29.2531 64.6166 32.2467 62.0412L33.1162 61.2928C35.1633 59.5429 38.1569 59.4218 40.3471 61.0067Z" fill="#F4D2BC" stroke="black" stroke-width="1.2624" stroke-miterlimit="10" stroke-linecap="round" stroke-linejoin="round"/>
<path opacity="0.05" d="M40.8974 67.4012L40.4571 68.4578C39.7417 70.1747 38.0688 71.2863 36.1978 71.2863C35.2293 71.2863 34.3048 70.9781 33.5124 70.4058C32.3678 69.5694 31.6744 68.2817 31.6194 66.8729" stroke="black" stroke-width="1.76737" stroke-miterlimit="10" stroke-linecap="round" stroke-linejoin="round"/>
<path d="M45.3437 61.0067C47.5339 59.4109 50.5275 59.5429 52.5856 61.3039L53.4551 62.0523C56.4487 64.6277 56.2616 69.3162 53.0699 71.6385C49.8782 73.9607 45.3547 72.684 43.8359 69.0521L43.3957 67.9955C42.3391 65.4861 43.1536 62.6026 45.3437 61.0067Z" fill="#F4D2BC" stroke="black" stroke-width="1.2624" stroke-miterlimit="10" stroke-linecap="round" stroke-linejoin="round"/>
<path opacity="0.05" d="M54.0605 66.8729C54.0055 68.2817 53.3121 69.5694 52.1675 70.4058C51.375 70.9781 50.4395 71.2863 49.482 71.2863C47.611 71.2863 45.9491 70.1747 45.2227 68.4578L44.7825 67.4012" stroke="black" stroke-width="1.76737" stroke-miterlimit="10" stroke-linecap="round" stroke-linejoin="round"/>
<path d="M46.8846 56.2522C46.0481 53.6768 47.0937 50.8702 49.4049 49.4615L50.3845 48.8672C53.7523 46.8091 58.1547 48.4489 59.3763 52.202C60.598 55.955 57.9896 59.8621 54.0605 60.1813L52.9158 60.2693C50.2194 60.4894 47.721 58.8275 46.8846 56.2522Z" fill="#F4D2BC" stroke="black" stroke-width="1.2624" stroke-miterlimit="10" stroke-linecap="round" stroke-linejoin="round"/>
<path d="M42.8454 62.9988C45.8421 62.9988 48.2714 60.5696 48.2714 57.5729C48.2714 54.5762 45.8421 52.147 42.8454 52.147C39.8488 52.147 37.4195 54.5762 37.4195 57.5729C37.4195 60.5696 39.8488 62.9988 42.8454 62.9988Z" fill="#FF8E97" stroke="black" stroke-width="1.2624" stroke-miterlimit="10" stroke-linecap="round" stroke-linejoin="round"/>
</svg>
