<svg width="105" height="105" viewBox="0 0 105 105" fill="none" xmlns="http://www.w3.org/2000/svg">
<rect x="1.99224" y="1.99224" width="100.94" height="100.94" rx="50.4702" fill="white" stroke="#F8C382" stroke-width="3.98449"/>
<path d="M89 62.4517H15V69.9355H89V62.4517Z" fill="#D2BE9B" stroke="black" stroke-width="1.9225" stroke-miterlimit="10" stroke-linecap="round" stroke-linejoin="round"/>
<path opacity="0.6" d="M59.129 64.6774H68.4516" stroke="white" stroke-width="2.59005" stroke-miterlimit="10" stroke-linecap="round" stroke-linejoin="round"/>
<path opacity="0.05" d="M86.7742 67.7258H17.2097" stroke="black" stroke-width="2.59005" stroke-miterlimit="10" stroke-linecap="round" stroke-linejoin="round"/>
<path opacity="0.6" d="M73.5161 64.6774H74.629" stroke="white" stroke-width="2.59005" stroke-miterlimit="10" stroke-linecap="round" stroke-linejoin="round"/>
<path d="M65.7581 34.5967C67.504 34.5967 68.9194 33.1814 68.9194 31.4355C68.9194 29.6895 67.504 28.2742 65.7581 28.2742C64.0121 28.2742 62.5968 29.6895 62.5968 31.4355C62.5968 33.1814 64.0121 34.5967 65.7581 34.5967Z" fill="#E7D1BA" stroke="black" stroke-width="1.85003" stroke-miterlimit="10" stroke-linecap="round" stroke-linejoin="round"/>
<path d="M29.371 69.9354H19.1129L22.8226 78.2419H29.371V69.9354Z" fill="#D2BE9B" stroke="black" stroke-width="1.9225" stroke-miterlimit="10" stroke-linecap="round" stroke-linejoin="round"/>
<path d="M74.629 69.9354H84.871L81.1613 78.2419H74.629V69.9354Z" fill="#D2BE9B" stroke="black" stroke-width="1.9225" stroke-miterlimit="10" stroke-linecap="round" stroke-linejoin="round"/>
<path opacity="0.15" d="M27.2903 78.2419L19.2258 70.1935" stroke="black" stroke-width="1.48003" stroke-miterlimit="10" stroke-linecap="round" stroke-linejoin="round"/>
<path opacity="0.15" d="M29.371 74.7741L24.5323 69.9354" stroke="black" stroke-width="1.48003" stroke-miterlimit="10" stroke-linecap="round" stroke-linejoin="round"/>
<path opacity="0.15" d="M77.2419 78.2419L74.6129 75.629" stroke="black" stroke-width="1.48003" stroke-miterlimit="10" stroke-linecap="round" stroke-linejoin="round"/>
<path opacity="0.15" d="M81.6613 77.129L74.6129 70.0806" stroke="black" stroke-width="1.48003" stroke-miterlimit="10" stroke-linecap="round" stroke-linejoin="round"/>
<path opacity="0.15" d="M83.371 73.2903L80.0323 69.9354" stroke="black" stroke-width="1.48003" stroke-miterlimit="10" stroke-linecap="round" stroke-linejoin="round"/>
<path d="M34.1774 50.0485H21.371V57.4839C21.371 60.2259 23.5968 62.4517 26.3387 62.4517H29.1935C31.9355 62.4517 34.1613 60.2259 34.1613 57.4839V50.0485H34.1774Z" fill="#CECDD2" stroke="black" stroke-width="1.85003" stroke-miterlimit="10" stroke-linecap="round" stroke-linejoin="round"/>
<path opacity="0.6" d="M26.7097 52.2581H30.4355" stroke="white" stroke-width="2.59005" stroke-miterlimit="10" stroke-linecap="round" stroke-linejoin="round"/>
<path opacity="0.05" d="M31.9516 57.4838C31.9516 58.9999 30.7097 60.2418 29.1935 60.2418H26.3387C24.8226 60.2418 23.5806 58.9999 23.5806 57.4838" stroke="black" stroke-width="2.59005" stroke-miterlimit="10" stroke-linecap="round" stroke-linejoin="round"/>
<path d="M80.6935 58.758C85.2811 58.758 89 55.0391 89 50.4516C89 45.8641 85.2811 42.1451 80.6935 42.1451C76.106 42.1451 72.3871 45.8641 72.3871 50.4516C72.3871 55.0391 76.106 58.758 80.6935 58.758Z" stroke="black" stroke-width="1.85003" stroke-miterlimit="10" stroke-linecap="round" stroke-linejoin="round"/>
<path d="M76.3226 38.4677H55.1935C53.7097 40.0967 52.5484 42.0806 51.7903 44.2741L50.9032 44.2096C48.3548 44.0322 46 42.758 44.4194 40.7419L41.5645 37.0645H36.2419C36.2419 37.0645 40.3548 44.2257 42.7581 47.3548C44.2258 49.2741 48.1613 51.2257 50.9839 52.4677C51.5 56.4354 53.2903 59.9354 55.871 62.4677H75.629C78.7258 59.4516 80.6774 55.0322 80.6774 50.1128C80.6935 45.5645 79.0161 41.4515 76.3226 38.4677Z" fill="#FAF1EE" stroke="black" stroke-width="1.85003" stroke-miterlimit="10" stroke-linecap="round" stroke-linejoin="round"/>
<path opacity="0.05" d="M76.3065 58.0645C75.8387 58.8386 75.3065 59.5645 74.6936 60.2419H56.8226C56.3387 59.6935 55.8871 59.1128 55.4839 58.4999" stroke="black" stroke-width="2.59005" stroke-miterlimit="10" stroke-linecap="round" stroke-linejoin="round"/>
<path d="M69.5645 32.6289H61.5968C59.0806 32.6289 56.8226 34.1773 55.9194 36.5321L55.1935 38.4515H75.9677L75.2419 36.5321C74.3387 34.1934 72.0806 32.6289 69.5645 32.6289Z" fill="#FAF1EE" stroke="black" stroke-width="1.85003" stroke-miterlimit="10" stroke-linecap="round" stroke-linejoin="round"/>
<path opacity="0.6" d="M61.5968 34.8547H64.1129" stroke="white" stroke-width="2.59005" stroke-miterlimit="10" stroke-linecap="round" stroke-linejoin="round"/>
<path opacity="0.6" d="M69.1774 34.8547H69.5645" stroke="white" stroke-width="2.59005" stroke-miterlimit="10" stroke-linecap="round" stroke-linejoin="round"/>
<path d="M31.3065 45.0484C29.5 42.8871 28.8387 39.8387 29.5645 37.1129C30.0645 35.2742 31.1452 33.5968 31.5 31.7258C31.871 29.7258 31.3387 27.5806 30.0645 26" stroke="black" stroke-width="1.85003" stroke-miterlimit="10" stroke-linecap="round" stroke-linejoin="round"/>
<path d="M25.7258 33.6935C25.2097 34.9677 24.6935 36.2903 24.7903 37.6612C24.9194 39.5322 26.2097 41.2419 26.0645 43.1128C25.9839 44.0806 25.5323 44.9838 25.0806 45.8548" stroke="black" stroke-width="1.85003" stroke-miterlimit="10" stroke-linecap="round" stroke-linejoin="round"/>
</svg>
