<svg width="105" height="105" viewBox="0 0 105 105" fill="none" xmlns="http://www.w3.org/2000/svg">
<rect x="1.99224" y="1.99224" width="100.94" height="100.94" rx="50.4702" fill="white" stroke="#F8C382" stroke-width="3.98449"/>
<path d="M86.8629 70.0824H18V76.1912H86.8629V70.0824Z" fill="#9E8465" stroke="black" stroke-width="1.7216" stroke-miterlimit="10" stroke-linecap="round" stroke-linejoin="round"/>
<path opacity="0.6" d="M63.8536 72.1537H70.4427" stroke="white" stroke-width="2.41025" stroke-miterlimit="10" stroke-linecap="round" stroke-linejoin="round"/>
<path opacity="0.6" d="M74.9154 72.1537H75.4258" stroke="white" stroke-width="2.41025" stroke-miterlimit="10" stroke-linecap="round" stroke-linejoin="round"/>
<path d="M30.0375 82.3001H26.6304C24.9944 82.3001 23.6885 80.9793 23.6885 79.3583V76.2063H32.9943V79.3583C32.9943 80.9793 31.6735 82.3001 30.0375 82.3001Z" fill="#9E8465" stroke="black" stroke-width="1.7216" stroke-miterlimit="10" stroke-linecap="round" stroke-linejoin="round"/>
<path d="M78.2475 82.3001H74.8404C73.2044 82.3001 71.8986 80.9793 71.8986 79.3583V76.2063H81.2044V79.3583C81.1893 80.9793 79.8685 82.3001 78.2475 82.3001Z" fill="#9E8465" stroke="black" stroke-width="1.7216" stroke-miterlimit="10" stroke-linecap="round" stroke-linejoin="round"/>
<path d="M78.2175 57.3395H30.7579C27.2908 57.3395 24.484 60.1462 24.484 63.6134C24.484 67.0805 27.2908 69.8873 30.7579 69.8873H78.2175C79.8685 69.8873 81.2044 68.5515 81.2044 66.9004V60.3113C81.1894 58.6753 79.8535 57.3395 78.2175 57.3395Z" fill="#F4D2BC" stroke="black" stroke-width="1.7216" stroke-miterlimit="10" stroke-linecap="round" stroke-linejoin="round"/>
<path d="M81.1894 63.6134H37.1069" stroke="black" stroke-width="1.7216" stroke-miterlimit="10" stroke-linecap="round" stroke-linejoin="round"/>
<path d="M75.9661 32.2439H28.5065C25.0394 32.2439 22.2326 35.0506 22.2326 38.5178C22.2326 41.985 25.0394 44.7917 28.5065 44.7917H75.9661C77.6171 44.7917 78.953 43.4559 78.953 41.8049V35.2157C78.953 33.5797 77.6171 32.2439 75.9661 32.2439Z" fill="#B6FCF5" stroke="black" stroke-width="1.7216" stroke-miterlimit="10" stroke-linecap="round" stroke-linejoin="round"/>
<path opacity="0.6" d="M52.0112 34.3152H59.1556" stroke="white" stroke-width="2.41025" stroke-miterlimit="10" stroke-linecap="round" stroke-linejoin="round"/>
<path opacity="0.05" d="M76.8817 41.8198C76.8817 42.3301 76.4764 42.7354 75.9661 42.7354H28.5066C27.4859 42.7354 26.5553 42.3751 25.8199 41.7598" stroke="black" stroke-width="2.41025" stroke-miterlimit="10" stroke-linecap="round" stroke-linejoin="round"/>
<path opacity="0.6" d="M64.0186 34.3152H64.9192" stroke="white" stroke-width="2.41025" stroke-miterlimit="10" stroke-linecap="round" stroke-linejoin="round"/>
<path d="M78.953 38.5178H34.8555" stroke="black" stroke-width="1.7216" stroke-miterlimit="10" stroke-linecap="round" stroke-linejoin="round"/>
<path opacity="0.15" d="M31.3433 69.8874L24.5141 63.0431" stroke="black" stroke-width="1.37729" stroke-miterlimit="10" stroke-linecap="round" stroke-linejoin="round"/>
<path opacity="0.15" d="M36.5065 69.8873L26.075 59.4408" stroke="black" stroke-width="1.37729" stroke-miterlimit="10" stroke-linecap="round" stroke-linejoin="round"/>
<path opacity="0.15" d="M41.6697 69.8874L29.302 57.5046" stroke="black" stroke-width="1.37729" stroke-miterlimit="10" stroke-linecap="round" stroke-linejoin="round"/>
<path opacity="0.15" d="M46.848 69.8873L34.3001 57.3395" stroke="black" stroke-width="1.37729" stroke-miterlimit="10" stroke-linecap="round" stroke-linejoin="round"/>
<path opacity="0.15" d="M52.0112 69.8873L39.4634 57.3395" stroke="black" stroke-width="1.37729" stroke-miterlimit="10" stroke-linecap="round" stroke-linejoin="round"/>
<path opacity="0.15" d="M57.1744 69.8873L44.6266 57.3395" stroke="black" stroke-width="1.37729" stroke-miterlimit="10" stroke-linecap="round" stroke-linejoin="round"/>
<path opacity="0.15" d="M62.3376 69.8873L49.7898 57.3395" stroke="black" stroke-width="1.37729" stroke-miterlimit="10" stroke-linecap="round" stroke-linejoin="round"/>
<path opacity="0.15" d="M67.5008 69.8873L54.953 57.3395" stroke="black" stroke-width="1.37729" stroke-miterlimit="10" stroke-linecap="round" stroke-linejoin="round"/>
<path opacity="0.15" d="M72.6641 69.8873L60.1162 57.3395" stroke="black" stroke-width="1.37729" stroke-miterlimit="10" stroke-linecap="round" stroke-linejoin="round"/>
<path opacity="0.15" d="M77.8273 69.8873L65.2794 57.3395" stroke="black" stroke-width="1.37729" stroke-miterlimit="10" stroke-linecap="round" stroke-linejoin="round"/>
<path opacity="0.15" d="M81.0242 67.9061L70.4427 57.3395" stroke="black" stroke-width="1.37729" stroke-miterlimit="10" stroke-linecap="round" stroke-linejoin="round"/>
<path opacity="0.15" d="M81.1893 62.923L75.6209 57.3395" stroke="black" stroke-width="1.37729" stroke-miterlimit="10" stroke-linecap="round" stroke-linejoin="round"/>
<path d="M28.5065 44.7917H79.4032C82.8704 44.7917 85.6772 47.5985 85.6772 51.0657C85.6772 54.5328 82.8704 57.3396 79.4032 57.3396H28.5065C26.8555 57.3396 25.5197 56.0037 25.5197 54.3527V47.7636C25.5347 46.1276 26.8705 44.7917 28.5065 44.7917Z" fill="#B6FCF5" stroke="black" stroke-width="1.7216" stroke-miterlimit="10" stroke-linecap="round" stroke-linejoin="round"/>
<path opacity="0.05" d="M82.4952 53.9324C81.7297 54.7579 80.634 55.2832 79.4183 55.2832H28.5065C27.9962 55.2832 27.591 54.878 27.591 54.3676" stroke="black" stroke-width="2.41025" stroke-miterlimit="10" stroke-linecap="round" stroke-linejoin="round"/>
<path d="M25.5347 51.0656H73.0693" stroke="black" stroke-width="1.7216" stroke-miterlimit="10" stroke-linecap="round" stroke-linejoin="round"/>
<path d="M46.923 31.9587H38.9831V45.0919H46.923V31.9587Z" fill="#00CCCC" stroke="black" stroke-width="1.7216" stroke-miterlimit="10" stroke-linecap="round" stroke-linejoin="round"/>
<path d="M50.9005 57.0393H42.9605V70.1725H50.9005V57.0393Z" fill="#00CCCC" stroke="black" stroke-width="1.7216" stroke-miterlimit="10" stroke-linecap="round" stroke-linejoin="round"/>
<path d="M76.5515 44.4915H68.6115V57.6246H76.5515V44.4915Z" fill="#00CCCC" stroke="black" stroke-width="1.7216" stroke-miterlimit="10" stroke-linecap="round" stroke-linejoin="round"/>
<path d="M57.9549 26.9906C59.3508 30.6078 64.1688 32.1238 64.1688 32.1238C64.1688 32.1238 66.7354 27.7711 65.3395 24.1388C63.9436 20.5065 59.1256 19.0056 59.1256 19.0056C59.1256 19.0056 56.559 23.3733 57.9549 26.9906Z" fill="#FF8E97" stroke="black" stroke-width="1.7216" stroke-miterlimit="10" stroke-linecap="round" stroke-linejoin="round"/>
<path d="M71.1481 26.9906C69.7522 30.6078 64.9342 32.1238 64.9342 32.1238C64.9342 32.1238 62.3676 27.7711 63.7635 24.1388C65.1594 20.5066 69.9774 19.0206 69.9774 19.0206C69.9774 19.0206 72.544 23.3733 71.1481 26.9906Z" fill="#FF8E97" stroke="black" stroke-width="1.7216" stroke-miterlimit="10" stroke-linecap="round" stroke-linejoin="round"/>
<path d="M68.5065 25.0244C68.5065 28.9118 64.544 32.0488 64.544 32.0488C64.544 32.0488 60.5815 28.8968 60.5815 25.0244C60.5815 21.152 64.544 18 64.544 18C64.544 18 68.5065 21.152 68.5065 25.0244Z" fill="#F4D2BC" stroke="black" stroke-width="1.7216" stroke-miterlimit="10" stroke-linecap="round" stroke-linejoin="round"/>
<path d="M72.3639 30.0224C69.6171 32.7691 64.589 32.1838 64.589 32.1838C64.589 32.1838 64.0187 27.1556 66.7504 24.4089C69.4821 21.6622 74.5252 22.2476 74.5252 22.2476C74.5252 22.2476 75.1106 27.2907 72.3639 30.0224Z" fill="#FFA9A4" stroke="black" stroke-width="1.7216" stroke-miterlimit="10" stroke-linecap="round" stroke-linejoin="round"/>
<path d="M56.7391 30.0224C59.4858 32.7691 64.514 32.1838 64.514 32.1838C64.514 32.1838 65.0843 27.1556 62.3526 24.4089C59.6059 21.6622 54.5778 22.2476 54.5778 22.2476C54.5778 22.2476 53.9924 27.2907 56.7391 30.0224Z" fill="#FFA9A4" stroke="black" stroke-width="1.7216" stroke-miterlimit="10" stroke-linecap="round" stroke-linejoin="round"/>
</svg>
