<svg width="105" height="105" viewBox="0 0 105 105" fill="none" xmlns="http://www.w3.org/2000/svg">
<rect x="1.99224" y="1.99224" width="100.94" height="100.94" rx="50.4702" fill="#F8C382" stroke="white" stroke-width="3.98449"/>
<path d="M66.3037 51.7556C65.5443 51.6896 64.7959 51.7886 64.1686 52.1078C63.145 52.6361 62.5287 53.8357 62.5177 54.9693C62.4957 57.0274 64.3337 58.4142 66.1717 58.8654C69.0442 59.5588 72.0488 58.7003 74.8774 57.8529C73.4686 57.6218 72.357 56.5652 71.4545 55.4646C70.9042 54.7932 70.3979 54.0668 69.8256 53.4285C69.0332 52.526 67.6575 51.8767 66.3037 51.7556Z" fill="#8ECB18" stroke="black" stroke-width="1.2624" stroke-miterlimit="10" stroke-linecap="round" stroke-linejoin="round"/>
<path d="M58.6104 46.7149C57.9831 47.5293 57.5649 48.4648 57.4878 49.4113C57.3668 50.9632 58.2913 52.515 59.579 53.3405C61.9122 54.8263 64.8068 53.7367 66.6338 51.9427C69.4733 49.1582 70.6289 45.119 71.6855 41.278C70.4198 42.7197 68.4167 43.237 66.5127 43.4791C65.3571 43.6222 64.1684 43.6883 63.0238 43.8864C61.439 44.1615 59.711 45.2731 58.6104 46.7149Z" fill="#8ECB18" stroke="black" stroke-width="1.2624" stroke-miterlimit="10" stroke-linecap="round" stroke-linejoin="round"/>
<path d="M52.1829 53.5936C53.2175 53.3514 54.252 53.0983 55.2756 52.8452C59.5789 51.7556 63.53 49.6534 66.8208 46.7809" stroke="black" stroke-width="1.2624" stroke-miterlimit="10" stroke-linecap="round" stroke-linejoin="round"/>
<path d="M36.0813 73.6464C34.0783 73.1732 32.2733 72.3257 30.8755 70.4107C30.4793 69.8604 30.1381 69.244 30.0391 68.5727C29.5658 65.3259 33.506 62.7615 36.1254 61.9911C39.2621 61.0776 42.5528 61.4848 45.7776 61.4408C49.5856 61.3858 53.3937 61.4298 57.1908 61.826C60.1844 62.1452 63.167 62.6955 66.0505 63.576C68.3398 64.2804 72.2799 65.2379 73.5676 67.4941C74.1399 68.4846 74.0409 69.7833 73.5016 70.7849C71.8066 73.9216 67.7675 73.7785 64.7188 73.6464C58.9187 73.4043 53.0965 73.6134 47.3294 74.2738C44.7981 74.5599 42.2447 74.5159 39.7243 74.2077C38.4586 74.0646 37.237 73.9216 36.0813 73.6464Z" fill="#605E6B" stroke="black" stroke-width="1.2624" stroke-miterlimit="10" stroke-linecap="round" stroke-linejoin="round"/>
<path d="M33.4508 42.2465C32.9666 42.7748 32.5153 43.3361 32.2292 43.9855C31.4257 45.8124 32.1961 48.0577 33.869 49.1032C34.4634 49.4774 35.1347 49.6865 35.7951 49.9067C37.9743 50.611 39.9663 51.3484 42.2776 51.5025C46.1737 51.7667 50.0918 51.8437 53.9769 51.4805C58.3353 51.0733 63.9483 49.5985 60.8556 44.0625C60.1843 42.8518 59.4249 41.6632 58.3463 40.8047C56.2551 39.1648 53.3276 39.0328 50.7962 38.7026C47.6925 38.2954 44.5558 38.1523 41.4301 38.2293C40.1865 38.2624 38.6346 38.2844 37.468 38.7576C36.0812 39.3189 34.9036 40.7387 33.8911 41.8063C33.737 41.9494 33.5939 42.0924 33.4508 42.2465Z" fill="#605E6B" stroke="black" stroke-width="1.2624" stroke-miterlimit="10" stroke-linecap="round" stroke-linejoin="round"/>
<path d="M37.6881 28.9513C34.4633 32.5613 38.1283 36.2372 41.7823 37.2718C45.0511 38.1853 49.3544 39.0328 52.7442 38.6145C54.274 38.4274 55.8039 37.8331 56.8935 36.7435C60.6025 33.0675 56.6623 27.8947 53.4486 25.5615C49.7836 22.909 45.2822 24.0096 41.5622 26.0898C40.2635 26.8162 38.7447 27.7627 37.6881 28.9513Z" fill="#CECDD2" stroke="black" stroke-width="1.2624" stroke-miterlimit="10" stroke-linecap="round" stroke-linejoin="round"/>
<path opacity="0.05" d="M56.8716 33.0125C56.9486 34.025 56.6074 34.8835 55.826 35.6539C55.0556 36.4133 53.9 36.9306 52.5462 37.0957C52.0179 37.1617 51.4236 37.1947 50.8073 37.1947C47.8027 37.1947 44.4569 36.4353 42.1896 35.797C40.1976 35.2467 38.4476 33.8379 38.0514 32.4622" stroke="black" stroke-width="1.76737" stroke-miterlimit="10" stroke-linecap="round" stroke-linejoin="round"/>
<path opacity="0.6" d="M48.5291 25.5065C50.0369 25.5065 51.3796 25.9357 52.5462 26.7832" stroke="white" stroke-width="1.76737" stroke-miterlimit="10" stroke-linecap="round" stroke-linejoin="round"/>
<path opacity="0.6" d="M54.7804 28.8302C54.8352 28.885 54.8791 28.9508 54.9339 29.0056" stroke="white" stroke-width="1.76737" stroke-miterlimit="10" stroke-linecap="round" stroke-linejoin="round"/>
<g opacity="0.15">
<path d="M37.6331 50.5009L31.9761 44.8438" stroke="black" stroke-width="1.00993" stroke-miterlimit="10" stroke-linecap="round" stroke-linejoin="round"/>
<path d="M42.4318 51.5134L33.3188 42.4005" stroke="black" stroke-width="1.00993" stroke-miterlimit="10" stroke-linecap="round" stroke-linejoin="round"/>
<path d="M46.4049 51.7006L35.1568 40.4525" stroke="black" stroke-width="1.00993" stroke-miterlimit="10" stroke-linecap="round" stroke-linejoin="round"/>
<path d="M50.2018 51.7005L37.3138 38.8126" stroke="black" stroke-width="1.00993" stroke-miterlimit="10" stroke-linecap="round" stroke-linejoin="round"/>
<path d="M53.7898 51.5025L40.5277 38.2513" stroke="black" stroke-width="1.00993" stroke-miterlimit="10" stroke-linecap="round" stroke-linejoin="round"/>
<path d="M57.0696 50.9962L44.2917 38.2183" stroke="black" stroke-width="1.00993" stroke-miterlimit="10" stroke-linecap="round" stroke-linejoin="round"/>
<path d="M59.81 49.9615L48.2868 38.4273" stroke="black" stroke-width="1.00993" stroke-miterlimit="10" stroke-linecap="round" stroke-linejoin="round"/>
<path d="M61.5932 47.9476L52.5573 38.9117" stroke="black" stroke-width="1.00993" stroke-miterlimit="10" stroke-linecap="round" stroke-linejoin="round"/>
<path d="M59.7991 42.3676L57.9721 40.5406" stroke="black" stroke-width="1.00993" stroke-miterlimit="10" stroke-linecap="round" stroke-linejoin="round"/>
</g>
<path opacity="0.15" d="M36.9288 73.7785L30.3473 67.197" stroke="black" stroke-width="1.00993" stroke-miterlimit="10" stroke-linecap="round" stroke-linejoin="round"/>
<path opacity="0.15" d="M41.3092 74.3618L31.734 64.7866" stroke="black" stroke-width="1.00993" stroke-miterlimit="10" stroke-linecap="round" stroke-linejoin="round"/>
<path opacity="0.15" d="M45.1944 74.4719L33.8472 63.1248" stroke="black" stroke-width="1.00993" stroke-miterlimit="10" stroke-linecap="round" stroke-linejoin="round"/>
<path opacity="0.15" d="M48.6942 74.1748L36.4886 61.9692" stroke="black" stroke-width="1.00993" stroke-miterlimit="10" stroke-linecap="round" stroke-linejoin="round"/>
<path opacity="0.15" d="M52.172 73.8666L39.7463 61.4409" stroke="black" stroke-width="1.00993" stroke-miterlimit="10" stroke-linecap="round" stroke-linejoin="round"/>
<path opacity="0.15" d="M55.749 73.6575L43.5104 61.4189" stroke="black" stroke-width="1.00993" stroke-miterlimit="10" stroke-linecap="round" stroke-linejoin="round"/>
<path opacity="0.15" d="M59.447 73.5694L47.3075 61.4299" stroke="black" stroke-width="1.00993" stroke-miterlimit="10" stroke-linecap="round" stroke-linejoin="round"/>
<path opacity="0.15" d="M63.266 73.6024L51.1155 61.4518" stroke="black" stroke-width="1.00993" stroke-miterlimit="10" stroke-linecap="round" stroke-linejoin="round"/>
<path opacity="0.15" d="M67.1622 73.7125L55.0776 61.6279" stroke="black" stroke-width="1.00993" stroke-miterlimit="10" stroke-linecap="round" stroke-linejoin="round"/>
<path opacity="0.15" d="M70.519 73.2832L59.3039 62.0682" stroke="black" stroke-width="1.00993" stroke-miterlimit="10" stroke-linecap="round" stroke-linejoin="round"/>
<path opacity="0.15" d="M72.9294 71.9075L63.9815 62.9487" stroke="black" stroke-width="1.00993" stroke-miterlimit="10" stroke-linecap="round" stroke-linejoin="round"/>
<path opacity="0.15" d="M69.3633 64.5555H69.3743L74.1839 69.3651" stroke="black" stroke-width="1.00993" stroke-miterlimit="10" stroke-linecap="round" stroke-linejoin="round"/>
<path d="M40.2415 51.2493C41.0009 51.1833 41.7603 51.1613 42.5197 51.1943C48.8922 51.4915 55.4187 50.3249 61.538 52.0858C63.5301 52.6581 65.6432 53.7147 65.8083 56.136C65.8964 57.4567 65.324 58.7224 64.3555 59.6249C62.1433 61.694 59.1167 61.771 56.2662 61.804C54.8244 61.8151 53.3826 61.8371 51.9408 61.8481C46.5149 61.9031 41.089 61.9581 35.663 62.0132C34.6285 62.0242 33.5609 62.0242 32.6144 61.639C31.4147 61.1437 30.5012 60.0211 30.2261 58.7554C29.9509 57.4897 30.3031 56.103 31.1176 55.1014C31.91 54.1219 33.0326 53.5496 34.1772 52.9883C36.0813 52.0198 38.1284 51.4364 40.2415 51.2493Z" fill="#605E6B" stroke="black" stroke-width="1.2624" stroke-miterlimit="10" stroke-linecap="round" stroke-linejoin="round"/>
<path opacity="0.05" d="M63.321 58.5133C61.6261 60.1091 59.3259 60.2522 56.2552 60.2852L35.6521 60.4943C35.509 60.4943 35.3549 60.4943 35.2008 60.4943C34.3864 60.4943 33.7261 60.4503 33.1868 60.2302C32.4604 59.933 31.8771 59.2287 31.701 58.4252" stroke="black" stroke-width="1.76737" stroke-miterlimit="10" stroke-linecap="round" stroke-linejoin="round"/>
<path opacity="0.6" d="M56.7285 52.7462C58.1483 52.8783 59.6451 53.1094 61.1199 53.5386" stroke="white" stroke-width="1.76737" stroke-miterlimit="10" stroke-linecap="round" stroke-linejoin="round"/>
<path opacity="0.6" d="M63.7392 54.9034C63.783 54.9472 63.8159 54.9911 63.8488 55.0349" stroke="white" stroke-width="1.76737" stroke-miterlimit="10" stroke-linecap="round" stroke-linejoin="round"/>
</svg>
