<svg width="105" height="105" viewBox="0 0 105 105" fill="none" xmlns="http://www.w3.org/2000/svg">
<g id="Group 19">
<rect id="Rectangle 17" x="1.99224" y="1.99224" width="100.94" height="100.94" rx="50.4702" fill="#F8C382" stroke="white" stroke-width="3.98449"/>
<g id="Group">
<g id="Group_2">
<g id="Group_3">
<path id="Vector" d="M40.9715 47.8338C43.7405 55.0167 53.3086 58.0187 53.3086 58.0187C53.3086 58.0187 58.4079 49.3691 55.6389 42.1862C52.8699 35.0033 43.3019 32.0013 43.3019 32.0013C43.3019 32.0013 38.2163 40.651 40.9715 47.8338Z" fill="#FF8E97" stroke="black" stroke-width="1.2624" stroke-miterlimit="10" stroke-linecap="round" stroke-linejoin="round"/>
<path id="Vector_2" d="M67.1535 47.8338C64.3845 55.0167 54.8165 58.0187 54.8165 58.0187C54.8165 58.0187 49.7172 49.3691 52.4861 42.1862C55.2551 35.0033 64.8232 32.0013 64.8232 32.0013C64.8232 32.0013 69.9087 40.651 67.1535 47.8338Z" fill="#FF8E97" stroke="black" stroke-width="1.2624" stroke-miterlimit="10" stroke-linecap="round" stroke-linejoin="round"/>
</g>
<g id="Group_4">
<path id="Vector_3" opacity="0.15" d="M53.5284 57.6487L40.2044 44.3247" stroke="black" stroke-width="1.00993" stroke-miterlimit="10" stroke-linecap="round" stroke-linejoin="round"/>
<path id="Vector_4" opacity="0.15" d="M57.5171 56.9222L54.9812 54.4L52.3082 51.7133L40.4647 39.8698" stroke="black" stroke-width="1.00993" stroke-miterlimit="10" stroke-linecap="round" stroke-linejoin="round"/>
<path id="Vector_5" opacity="0.15" d="M60.5466 55.2498L56.0505 50.7399L51.664 46.3671L41.4654 36.1548" stroke="black" stroke-width="1.00993" stroke-miterlimit="10" stroke-linecap="round" stroke-linejoin="round"/>
<path id="Vector_6" opacity="0.15" d="M63.2472 53.221L56.4618 46.4356L52.418 42.3918L42.8637 32.8375" stroke="black" stroke-width="1.00993" stroke-miterlimit="10" stroke-linecap="round" stroke-linejoin="round"/>
<path id="Vector_7" opacity="0.15" d="M65.5089 50.7673L54.0629 39.3213L54.0217 39.2801L50.6496 35.908" stroke="black" stroke-width="1.00993" stroke-miterlimit="10" stroke-linecap="round" stroke-linejoin="round"/>
<path id="Vector_8" opacity="0.15" d="M67.1949 47.7242L56.3247 36.8676" stroke="black" stroke-width="1.00993" stroke-miterlimit="10" stroke-linecap="round" stroke-linejoin="round"/>
<path id="Vector_9" opacity="0.15" d="M67.9489 43.7763L59.0114 34.8389" stroke="black" stroke-width="1.00993" stroke-miterlimit="10" stroke-linecap="round" stroke-linejoin="round"/>
<path id="Vector_10" opacity="0.15" d="M67.3595 38.4714L62.0409 33.139" stroke="black" stroke-width="1.00993" stroke-miterlimit="10" stroke-linecap="round" stroke-linejoin="round"/>
</g>
<path id="Vector_11" d="M61.9172 43.9408C61.9172 51.6446 54.0626 57.8816 54.0626 57.8816C54.0626 57.8816 46.2081 51.6446 46.2081 43.9408C46.2081 36.237 54.0626 30 54.0626 30C54.0626 30 61.9172 36.2508 61.9172 43.9408Z" fill="#F4D2BC" stroke="black" stroke-width="1.2624" stroke-miterlimit="10" stroke-linecap="round" stroke-linejoin="round"/>
<path id="Vector_12" d="M69.5798 53.8652C64.1378 59.3072 54.1723 58.1695 54.1723 58.1695C54.1723 58.1695 53.0345 48.2039 58.4765 42.7619C63.9185 37.3199 73.8841 38.4577 73.8841 38.4577C73.8841 38.4577 75.0218 48.4095 69.5798 53.8652Z" fill="#FFA9A4" stroke="black" stroke-width="1.2624" stroke-miterlimit="10" stroke-linecap="round" stroke-linejoin="round"/>
<path id="Vector_13" d="M38.5455 53.8652C43.9875 59.3072 53.953 58.1695 53.953 58.1695C53.953 58.1695 55.0908 48.2039 49.6488 42.7619C44.2068 37.3199 34.2549 38.444 34.2549 38.444C34.2549 38.444 33.1035 48.4095 38.5455 53.8652Z" fill="#FFA9A4" stroke="black" stroke-width="1.2624" stroke-miterlimit="10" stroke-linecap="round" stroke-linejoin="round"/>
<path id="Vector_14" opacity="0.6" d="M43.8914 41.3912C45.509 41.9669 47.0716 42.8305 48.3191 44.0779" stroke="white" stroke-width="1.76737" stroke-miterlimit="10" stroke-linecap="round" stroke-linejoin="round"/>
<path id="Vector_15" opacity="0.6" d="M50.4164 47.0662C50.4437 47.1344 50.4847 47.2027 50.512 47.271" stroke="white" stroke-width="1.76737" stroke-miterlimit="10" stroke-linecap="round" stroke-linejoin="round"/>
</g>
<path id="Vector_16" d="M31.1705 67.6828V51.768H40.5192C42.7536 51.768 44.9743 52.0559 47.1401 52.6042L52.5958 54.0161C54.4463 54.4959 56.3654 54.7426 58.2708 54.7426H63.0823C65.2344 54.7426 66.9753 56.4835 66.9753 58.6356V61.0208C66.9753 61.8569 66.3036 62.5423 65.4674 62.5423C60.9301 62.5423 47.7844 62.5423 47.7844 62.5423H63.3701C63.7265 62.5423 64.0966 62.4601 64.4256 62.3093L79.984 52.8098C81.7797 52.0696 83.8496 52.9058 84.6035 54.7015C85.3437 56.4698 84.5487 58.5122 82.8078 59.3073L66.5503 69.7389C64.9054 70.5751 63.096 71 61.2454 71H36.6948C35.653 71 34.6523 70.6299 33.8572 69.9582L31.1705 67.6828Z" fill="#E7D1BA" stroke="black" stroke-width="1.2624" stroke-miterlimit="10" stroke-linecap="round" stroke-linejoin="round"/>
<g id="Vector_17">
<path d="M67.0575 60.6781L79.984 52.7824C81.7797 52.0422 83.8496 52.8783 84.6035 54.6741C85.3437 56.4424 84.5487 58.4848 82.8078 59.2799L66.5503 69.7115C64.9054 70.5477 63.096 70.9726 61.2454 70.9726H36.6948C35.653 70.9726 34.6523 70.6025 33.8572 69.9308L31.1705 67.669V51.768H40.5192C42.7536 51.768 44.9743 52.0559 47.1401 52.6042L52.5958 54.0161C54.4463 54.4959 56.3654 54.7426 58.2708 54.7426H63.0823C65.2344 54.7426 66.9753 56.4835 66.9753 58.6356V61.0208C66.9753 61.8569 66.3036 62.5423 65.4674 62.5423C60.9301 62.5423 47.7844 62.5423 47.7844 62.5423H63.3701" fill="#E7D1BA"/>
<path d="M67.0575 60.6781L79.984 52.7824C81.7797 52.0422 83.8496 52.8783 84.6035 54.6741C85.3437 56.4424 84.5487 58.4848 82.8078 59.2799L66.5503 69.7115C64.9054 70.5477 63.096 70.9726 61.2454 70.9726H36.6948C35.653 70.9726 34.6523 70.6025 33.8572 69.9308L31.1705 67.669V51.768H40.5192C42.7536 51.768 44.9743 52.0559 47.1401 52.6042L52.5958 54.0161C54.4463 54.4959 56.3654 54.7426 58.2708 54.7426H63.0823C65.2344 54.7426 66.9753 56.4835 66.9753 58.6356V61.0208C66.9753 61.8569 66.3036 62.5423 65.4674 62.5423C60.9301 62.5423 47.7844 62.5423 47.7844 62.5423H63.3701" stroke="black" stroke-width="1.2624" stroke-miterlimit="10" stroke-linecap="round" stroke-linejoin="round"/>
</g>
<path id="Vector_18" opacity="0.6" d="M62.4928 56.6204H62.109" stroke="white" stroke-width="1.76737" stroke-miterlimit="10" stroke-linecap="round" stroke-linejoin="round"/>
<path id="Vector_19" opacity="0.05" d="M35.0636 68.5052C35.5159 68.889 36.1054 69.0946 36.6948 69.0946H61.2454C62.7533 69.0946 64.2612 68.7382 65.6182 68.0665" stroke="black" stroke-width="1.76737" stroke-miterlimit="10" stroke-linecap="round" stroke-linejoin="round"/>
<path id="Vector_20" opacity="0.6" d="M58.2845 56.6205C56.2147 56.6205 54.1448 56.3601 52.1297 55.8392" stroke="white" stroke-width="1.76737" stroke-miterlimit="10" stroke-linecap="round" stroke-linejoin="round"/>
<path id="Vector_21" d="M24.1797 70.9863H28.9911C30.1974 70.9863 31.1707 70.013 31.1707 68.8067V51.0826C31.1707 49.8763 30.1974 48.903 28.9911 48.903H24.1797C22.9734 48.903 22.0001 49.8763 22.0001 51.0826V68.793C21.9864 69.9993 22.9734 70.9863 24.1797 70.9863Z" fill="#E7D1BA" stroke="black" stroke-width="1.2624" stroke-miterlimit="10" stroke-linecap="round" stroke-linejoin="round"/>
<path id="Vector_22" d="M24.1797 70.9863H28.9911C30.1974 70.9863 31.1707 70.013 31.1707 68.8067V51.0826C31.1707 49.8763 30.1974 48.903 28.9911 48.903H24.1797C22.9734 48.903 22.0001 49.8763 22.0001 51.0826V68.793C21.9864 69.9993 22.9734 70.9863 24.1797 70.9863Z" fill="#00CCCC" stroke="black" stroke-width="1.2624" stroke-miterlimit="10" stroke-linecap="round" stroke-linejoin="round"/>
<path id="Vector_23" opacity="0.05" d="M29.2788 68.793C29.2788 68.9575 29.1418 69.0946 28.9773 69.0946H24.1658C24.0013 69.0946 23.8643 68.9575 23.8643 68.793" stroke="black" stroke-width="1.76737" stroke-miterlimit="10" stroke-linecap="round" stroke-linejoin="round"/>
</g>
</g>
</svg>
