<svg width="105" height="105" viewBox="0 0 105 105" fill="none" xmlns="http://www.w3.org/2000/svg">
<g id="Group 20">
<rect id="Rectangle 18" x="1.99224" y="1.99224" width="100.94" height="100.94" rx="50.4702" fill="#F8C382" stroke="white" stroke-width="3.98449"/>
<g id="Group">
<g id="Group_2">
<path id="Vector" d="M72.492 78.4271H69.8941L64.4035 71.3777H71.4669L72.492 78.4271Z" fill="#FAF1EE" stroke="black" stroke-width="1.6107" stroke-miterlimit="10" stroke-linecap="round" stroke-linejoin="round"/>
<path id="Vector_2" d="M40.3906 78.427H42.9885L48.4791 71.3776H41.4157L40.3906 78.427Z" fill="#FAF1EE" stroke="black" stroke-width="1.6107" stroke-miterlimit="10" stroke-linecap="round" stroke-linejoin="round"/>
</g>
<path id="Vector_3" d="M59.9097 38.3357L58.8986 36.4821H53.9837L52.9727 38.3357C51.7369 40.5965 49.7008 42.3237 47.2433 43.0961C39.1689 45.6097 33.5378 51.5216 33.5378 59.582C33.5378 70.4368 43.8029 77.416 56.4552 77.416C69.1075 77.416 79.3726 70.4509 79.3726 59.582C79.3726 51.5356 73.7275 45.6237 65.6671 43.0961C63.1816 42.3237 61.1454 40.5965 59.9097 38.3357Z" fill="#FAF1EE" stroke="black" stroke-width="1.6107" stroke-miterlimit="10" stroke-linecap="round" stroke-linejoin="round"/>
<path id="Vector_4" d="M56.4412 69.524C48.3527 69.524 40.8821 68.176 34.8297 65.887C37.9612 73.0627 46.4569 77.4019 56.4412 77.4019C66.4254 77.4019 74.9211 73.0627 78.0526 65.887C72.0002 68.176 64.5296 69.524 56.4412 69.524Z" fill="#11EDDF" stroke="black" stroke-width="1.6107" stroke-miterlimit="10" stroke-linecap="round" stroke-linejoin="round"/>
<path id="Vector_5" opacity="0.05" d="M73.3063 69.4117C69.5148 73.1891 63.4063 75.478 56.4412 75.478C49.4761 75.478 43.3676 73.2032 39.5762 69.4117" stroke="black" stroke-width="2.25499" stroke-miterlimit="10" stroke-linecap="round" stroke-linejoin="round"/>
<path id="Vector_6" opacity="0.6" d="M56.4412 71.4619C58.7442 71.4619 61.0331 71.3496 63.2518 71.153" stroke="white" stroke-width="2.25499" stroke-miterlimit="10" stroke-linecap="round" stroke-linejoin="round"/>
<path id="Vector_7" opacity="0.6" d="M67.296 70.6475C67.3943 70.6334 67.5066 70.6194 67.6049 70.5913" stroke="white" stroke-width="2.25499" stroke-miterlimit="10" stroke-linecap="round" stroke-linejoin="round"/>
<path id="Vector_8" d="M71.902 56.9841C72.9024 56.9841 73.7135 56.1731 73.7135 55.1726C73.7135 54.1722 72.9024 53.3611 71.902 53.3611C70.9015 53.3611 70.0905 54.1722 70.0905 55.1726C70.0905 56.1731 70.9015 56.9841 71.902 56.9841Z" fill="#8ECB18" stroke="black" stroke-width="1.6107" stroke-miterlimit="10" stroke-linecap="round" stroke-linejoin="round"/>
<path id="Vector_9" d="M72.9411 63.6543C73.9416 63.6543 74.7526 62.8433 74.7526 61.8429C74.7526 60.8424 73.9416 60.0314 72.9411 60.0314C71.9407 60.0314 71.1296 60.8424 71.1296 61.8429C71.1296 62.8433 71.9407 63.6543 72.9411 63.6543Z" fill="#CECDD2" stroke="black" stroke-width="1.6107" stroke-miterlimit="10" stroke-linecap="round" stroke-linejoin="round"/>
<path id="Vector_10" d="M57.2416 31.6655C55.5705 29.6574 54.9526 26.8348 55.6267 24.3072C56.0901 22.594 57.1011 21.0493 57.4241 19.3081C57.7752 17.4545 57.2696 15.4745 56.1041 14" stroke="black" stroke-width="1.6107" stroke-miterlimit="10" stroke-linecap="round" stroke-linejoin="round"/>
<path id="Vector_11" d="M34.1136 57.939H34.1417V54.3862H27.8366V57.939H27.8647C26.2779 57.939 25 59.2309 25 60.8037V75.5483C25 77.1351 26.2919 78.413 27.8647 78.413H34.0995C35.6863 78.413 36.9642 77.121 36.9642 75.5483V60.8037C36.9783 59.2309 35.7004 57.939 34.1136 57.939Z" fill="#5B391E" stroke="black" stroke-width="1.6107" stroke-miterlimit="10" stroke-linecap="round" stroke-linejoin="round"/>
<g id="Group_3">
<path id="Vector_12" opacity="0.15" d="M27.9068 78.427L25 75.5202" stroke="black" stroke-width="1.28857" stroke-miterlimit="10" stroke-linecap="round" stroke-linejoin="round"/>
<path id="Vector_13" opacity="0.15" d="M32.7515 78.4269L25 70.6895" stroke="black" stroke-width="1.28857" stroke-miterlimit="10" stroke-linecap="round" stroke-linejoin="round"/>
<path id="Vector_14" opacity="0.15" d="M36.4166 77.2755L25 65.8589" stroke="black" stroke-width="1.28857" stroke-miterlimit="10" stroke-linecap="round" stroke-linejoin="round"/>
<path id="Vector_15" opacity="0.15" d="M36.9783 73.0066L25 61.0283" stroke="black" stroke-width="1.28857" stroke-miterlimit="10" stroke-linecap="round" stroke-linejoin="round"/>
<path id="Vector_16" opacity="0.15" d="M36.9783 68.1759L26.9239 58.1074" stroke="black" stroke-width="1.28857" stroke-miterlimit="10" stroke-linecap="round" stroke-linejoin="round"/>
<path id="Vector_17" opacity="0.15" d="M36.9783 63.3312L28.0332 54.4002" stroke="black" stroke-width="1.28857" stroke-miterlimit="10" stroke-linecap="round" stroke-linejoin="round"/>
<path id="Vector_18" opacity="0.15" d="M34.1417 55.664L32.8638 54.4002" stroke="black" stroke-width="1.28857" stroke-miterlimit="10" stroke-linecap="round" stroke-linejoin="round"/>
</g>
<path id="Vector_19" d="M35.0263 51.002H26.9518V55.6079H35.0263V51.002Z" fill="#CECDD2" stroke="black" stroke-width="1.6107" stroke-miterlimit="10" stroke-linecap="round" stroke-linejoin="round"/>
<path id="Vector_20" d="M34.1416 51.002H27.8506L28.0191 50.4543C28.2718 49.6399 28.3982 48.7973 28.3982 47.9548V47.6037C28.3982 46.1714 29.5638 45.0059 30.9961 45.0059C32.4284 45.0059 33.594 46.1714 33.594 47.6037V47.9548C33.594 48.7973 33.7203 49.6539 33.9731 50.4543L34.1416 51.002Z" fill="#605E6B" stroke="black" stroke-width="1.6107" stroke-miterlimit="10" stroke-linecap="round" stroke-linejoin="round"/>
<path id="Vector_21" opacity="0.6" d="M30.9961 46.9157C31.3612 46.9157 31.6701 47.2106 31.6701 47.5897" stroke="white" stroke-width="2.25499" stroke-miterlimit="10" stroke-linecap="round" stroke-linejoin="round"/>
<path id="Vector_22" d="M34.5208 62.1658H25V73.0347H34.5208V62.1658Z" fill="#FFA9A4" stroke="black" stroke-width="1.6107" stroke-miterlimit="10" stroke-linecap="round" stroke-linejoin="round"/>
</g>
</g>
</svg>
